<?xml version="1.0" encoding="utf-8"?>
<svg xmlns="http://www.w3.org/2000/svg" xmlns:xlink="http://www.w3.org/1999/xlink" width="600" height="400" viewBox="0 0 2400 1600">
<defs>
  <clipPath id="clip4300">
    <rect x="0" y="0" width="2400" height="1600"/>
  </clipPath>
</defs>
<polygon clip-path="url(#clip4300)" points="
0,1600 2400,1600 2400,0 0,0 
  " fill="#ffffff" fill-rule="evenodd" fill-opacity="1"/>
<defs>
  <clipPath id="clip4301">
    <rect x="480" y="0" width="1681" height="1600"/>
  </clipPath>
</defs>
<polygon clip-path="url(#clip4300)" points="
208.77,1487.47 2352.76,1487.47 2352.76,47.2441 208.77,47.2441 
  " fill="#ffffff" fill-rule="evenodd" fill-opacity="1"/>
<defs>
  <clipPath id="clip4302">
    <rect x="208" y="47" width="2145" height="1441"/>
  </clipPath>
</defs>
<polyline clip-path="url(#clip4302)" style="stroke:#000000; stroke-width:2; stroke-opacity:0.1; fill:none" points="
  269.449,1487.47 269.449,47.2441 
  "/>
<polyline clip-path="url(#clip4302)" style="stroke:#000000; stroke-width:2; stroke-opacity:0.1; fill:none" points="
  775.106,1487.47 775.106,47.2441 
  "/>
<polyline clip-path="url(#clip4302)" style="stroke:#000000; stroke-width:2; stroke-opacity:0.1; fill:none" points="
  1280.76,1487.47 1280.76,47.2441 
  "/>
<polyline clip-path="url(#clip4302)" style="stroke:#000000; stroke-width:2; stroke-opacity:0.1; fill:none" points="
  1786.42,1487.47 1786.42,47.2441 
  "/>
<polyline clip-path="url(#clip4302)" style="stroke:#000000; stroke-width:2; stroke-opacity:0.1; fill:none" points="
  2292.08,1487.47 2292.08,47.2441 
  "/>
<polyline clip-path="url(#clip4302)" style="stroke:#000000; stroke-width:2; stroke-opacity:0.1; fill:none" points="
  208.77,1449.66 2352.76,1449.66 
  "/>
<polyline clip-path="url(#clip4302)" style="stroke:#000000; stroke-width:2; stroke-opacity:0.1; fill:none" points="
  208.77,993.02 2352.76,993.02 
  "/>
<polyline clip-path="url(#clip4302)" style="stroke:#000000; stroke-width:2; stroke-opacity:0.1; fill:none" points="
  208.77,536.375 2352.76,536.375 
  "/>
<polyline clip-path="url(#clip4302)" style="stroke:#000000; stroke-width:2; stroke-opacity:0.1; fill:none" points="
  208.77,79.7302 2352.76,79.7302 
  "/>
<polyline clip-path="url(#clip4300)" style="stroke:#000000; stroke-width:4; stroke-opacity:1; fill:none" points="
  208.77,1487.47 2352.76,1487.47 
  "/>
<polyline clip-path="url(#clip4300)" style="stroke:#000000; stroke-width:4; stroke-opacity:1; fill:none" points="
  208.77,1487.47 208.77,47.2441 
  "/>
<polyline clip-path="url(#clip4300)" style="stroke:#000000; stroke-width:4; stroke-opacity:1; fill:none" points="
  269.449,1487.47 269.449,1465.87 
  "/>
<polyline clip-path="url(#clip4300)" style="stroke:#000000; stroke-width:4; stroke-opacity:1; fill:none" points="
  775.106,1487.47 775.106,1465.87 
  "/>
<polyline clip-path="url(#clip4300)" style="stroke:#000000; stroke-width:4; stroke-opacity:1; fill:none" points="
  1280.76,1487.47 1280.76,1465.87 
  "/>
<polyline clip-path="url(#clip4300)" style="stroke:#000000; stroke-width:4; stroke-opacity:1; fill:none" points="
  1786.42,1487.47 1786.42,1465.87 
  "/>
<polyline clip-path="url(#clip4300)" style="stroke:#000000; stroke-width:4; stroke-opacity:1; fill:none" points="
  2292.08,1487.47 2292.08,1465.87 
  "/>
<polyline clip-path="url(#clip4300)" style="stroke:#000000; stroke-width:4; stroke-opacity:1; fill:none" points="
  208.77,1449.66 240.93,1449.66 
  "/>
<polyline clip-path="url(#clip4300)" style="stroke:#000000; stroke-width:4; stroke-opacity:1; fill:none" points="
  208.77,993.02 240.93,993.02 
  "/>
<polyline clip-path="url(#clip4300)" style="stroke:#000000; stroke-width:4; stroke-opacity:1; fill:none" points="
  208.77,536.375 240.93,536.375 
  "/>
<polyline clip-path="url(#clip4300)" style="stroke:#000000; stroke-width:4; stroke-opacity:1; fill:none" points="
  208.77,79.7302 240.93,79.7302 
  "/>
<g clip-path="url(#clip4300)">
<text style="fill:#000000; fill-opacity:1; font-family:Arial,Helvetica Neue,Helvetica,sans-serif; font-size:48px; text-anchor:middle;" transform="rotate(0, 269.449, 1541.47)" x="269.449" y="1541.47">-1.0</text>
</g>
<g clip-path="url(#clip4300)">
<text style="fill:#000000; fill-opacity:1; font-family:Arial,Helvetica Neue,Helvetica,sans-serif; font-size:48px; text-anchor:middle;" transform="rotate(0, 775.106, 1541.47)" x="775.106" y="1541.47">-0.5</text>
</g>
<g clip-path="url(#clip4300)">
<text style="fill:#000000; fill-opacity:1; font-family:Arial,Helvetica Neue,Helvetica,sans-serif; font-size:48px; text-anchor:middle;" transform="rotate(0, 1280.76, 1541.47)" x="1280.76" y="1541.47">0.0</text>
</g>
<g clip-path="url(#clip4300)">
<text style="fill:#000000; fill-opacity:1; font-family:Arial,Helvetica Neue,Helvetica,sans-serif; font-size:48px; text-anchor:middle;" transform="rotate(0, 1786.42, 1541.47)" x="1786.42" y="1541.47">0.5</text>
</g>
<g clip-path="url(#clip4300)">
<text style="fill:#000000; fill-opacity:1; font-family:Arial,Helvetica Neue,Helvetica,sans-serif; font-size:48px; text-anchor:middle;" transform="rotate(0, 2292.08, 1541.47)" x="2292.08" y="1541.47">1.0</text>
</g>
<g clip-path="url(#clip4300)">
<text style="fill:#000000; fill-opacity:1; font-family:Arial,Helvetica Neue,Helvetica,sans-serif; font-size:48px; text-anchor:end;" transform="rotate(0, 184.77, 1467.16)" x="184.77" y="1467.16">-0.01</text>
</g>
<g clip-path="url(#clip4300)">
<text style="fill:#000000; fill-opacity:1; font-family:Arial,Helvetica Neue,Helvetica,sans-serif; font-size:48px; text-anchor:end;" transform="rotate(0, 184.77, 1010.52)" x="184.77" y="1010.52">0.00</text>
</g>
<g clip-path="url(#clip4300)">
<text style="fill:#000000; fill-opacity:1; font-family:Arial,Helvetica Neue,Helvetica,sans-serif; font-size:48px; text-anchor:end;" transform="rotate(0, 184.77, 553.875)" x="184.77" y="553.875">0.01</text>
</g>
<g clip-path="url(#clip4300)">
<text style="fill:#000000; fill-opacity:1; font-family:Arial,Helvetica Neue,Helvetica,sans-serif; font-size:48px; text-anchor:end;" transform="rotate(0, 184.77, 97.2302)" x="184.77" y="97.2302">0.02</text>
</g>
<polygon clip-path="url(#clip4302)" points="
269.449,1446.71 289.676,1441.68 309.902,1433.61 330.128,1441.35 350.354,1439.96 370.581,1433.19 390.807,1423.47 411.033,1415.58 431.259,1422.9 451.486,1416.16 
  471.712,1411.7 491.938,1404.83 512.165,1404.72 532.391,1408.84 552.617,1407.62 572.843,1405.78 593.07,1399.58 613.296,1389.25 633.522,1386.21 653.749,1385.91 
  673.975,1380.71 694.201,1382.18 714.427,1378.2 734.654,1369.89 754.88,1359.35 775.106,1356.19 795.332,1344.69 815.559,1327.41 835.785,1312.14 856.011,1302.37 
  876.238,1291.67 896.464,1277.08 916.69,1260.71 936.916,1253.17 957.143,1243.1 977.369,1234.07 997.595,1230.4 1017.82,1209.36 1038.05,1202.97 1058.27,1181.69 
  1078.5,1163.47 1098.73,1146.31 1118.95,1147.33 1139.18,1140.23 1159.41,1130.11 1179.63,1139.76 1199.86,1156.17 1220.08,1180.57 1240.31,1195.68 1260.54,1198.71 
  1280.76,1184.57 1300.99,1159.98 1321.22,1129.19 1341.44,1099.75 1361.67,1068.25 1381.89,1031.29 1402.12,996.676 1422.35,966.172 1442.57,940.996 1462.8,923.801 
  1483.03,911.919 1503.25,908.228 1523.48,914.85 1543.7,925.109 1563.93,941.069 1584.16,958.236 1604.38,979.514 1624.61,998.014 1644.84,1023.14 1665.06,1041.26 
  1685.29,1060.92 1705.51,1075.74 1725.74,1090.68 1745.97,1102.15 1766.19,1113.29 1786.42,1121.64 1806.65,1132.22 1826.87,1138.71 1847.1,1145.26 1867.33,1150.27 
  1887.55,1153.59 1907.78,1158.96 1928,1162.31 1948.23,1169.04 1968.46,1171.12 1988.68,1173.44 2008.91,1175.83 2029.14,1173.82 2049.36,1174.09 2069.59,1178.47 
  2089.81,1184.67 2110.04,1187.37 2130.27,1194.24 2150.49,1196.31 2170.72,1194.38 2190.95,1200.11 2211.17,1206.97 2231.4,1215.99 2251.62,1230.13 2271.85,1238 
  2292.08,1242.65 2292.08,1117.67 2271.85,1113.81 2251.62,1107.8 2231.4,1095.9 2211.17,1088.53 2190.95,1082.62 2170.72,1078.5 2150.49,1077.88 2130.27,1074.17 
  2110.04,1058.47 2089.81,1049.9 2069.59,1045.47 2049.36,1045.03 2029.14,1045.37 2008.91,1040.43 1988.68,1032.8 1968.46,1025.97 1948.23,1016.78 1928,1001.96 
  1907.78,993.093 1887.55,981.227 1867.33,974.246 1847.1,966.395 1826.87,959.206 1806.65,950.095 1786.42,937.654 1766.19,923.402 1745.97,909.228 1725.74,894.674 
  1705.51,878.68 1685.29,862.625 1665.06,839.793 1644.84,817.204 1624.61,785.175 1604.38,759.346 1584.16,732.565 1563.93,701.551 1543.7,672.203 1523.48,651.17 
  1503.25,640.726 1483.03,645.918 1462.8,660.684 1442.57,679.922 1422.35,708.909 1402.12,749.291 1381.89,790.491 1361.67,829.773 1341.44,863.312 1321.22,895.653 
  1300.99,926.735 1280.76,952.759 1260.54,970.239 1240.31,975.644 1220.08,971.814 1199.86,956.62 1179.63,946.54 1159.41,938.372 1139.18,944.626 1118.95,948.378 
  1098.73,947.755 1078.5,964.986 1058.27,977.393 1038.05,994.315 1017.82,1010.38 997.595,1029.34 977.369,1030.18 957.143,1042.91 936.916,1055.48 916.69,1060.52 
  896.464,1074.64 876.238,1101.71 856.011,1111.29 835.785,1119.89 815.559,1143.6 795.332,1162.14 775.106,1173.96 754.88,1177.95 734.654,1188.66 714.427,1189.66 
  694.201,1186.82 673.975,1182.84 653.749,1186.46 633.522,1187.87 613.296,1187.4 593.07,1198.85 572.843,1205.51 552.617,1209.95 532.391,1207.26 512.165,1208.67 
  491.938,1206.89 471.712,1211.73 451.486,1214.82 431.259,1215.08 411.033,1211.26 390.807,1216.65 370.581,1221.73 350.354,1228.78 330.128,1229.03 309.902,1226.33 
  289.676,1231.57 269.449,1232.8 
  " fill="#e69f00" fill-rule="evenodd" fill-opacity="0.5"/>
<polyline clip-path="url(#clip4302)" style="stroke:#e69f00; stroke-width:4; stroke-opacity:1; fill:none" points="
  269.449,1339.76 289.676,1336.63 309.902,1329.97 330.128,1335.19 350.354,1334.37 370.581,1327.46 390.807,1320.06 411.033,1313.42 431.259,1318.99 451.486,1315.49 
  471.712,1311.71 491.938,1305.86 512.165,1306.69 532.391,1308.05 552.617,1308.79 572.843,1305.64 593.07,1299.21 613.296,1288.33 633.522,1287.04 653.749,1286.19 
  673.975,1281.77 694.201,1284.5 714.427,1283.93 734.654,1279.27 754.88,1268.65 775.106,1265.07 795.332,1253.42 815.559,1235.51 835.785,1216.02 856.011,1206.83 
  876.238,1196.69 896.464,1175.86 916.69,1160.62 936.916,1154.32 957.143,1143.01 977.369,1132.12 997.595,1129.87 1017.82,1109.87 1038.05,1098.64 1058.27,1079.54 
  1078.5,1064.23 1098.73,1047.03 1118.95,1047.85 1139.18,1042.43 1159.41,1034.24 1179.63,1043.15 1199.86,1056.4 1220.08,1076.19 1240.31,1085.66 1260.54,1084.47 
  1280.76,1068.66 1300.99,1043.36 1321.22,1012.42 1341.44,981.53 1361.67,949.012 1381.89,910.893 1402.12,872.983 1422.35,837.54 1442.57,810.459 1462.8,792.243 
  1483.03,778.919 1503.25,774.477 1523.48,783.01 1543.7,798.656 1563.93,821.31 1584.16,845.401 1604.38,869.43 1624.61,891.595 1644.84,920.174 1665.06,940.529 
  1685.29,961.774 1705.51,977.211 1725.74,992.677 1745.97,1005.69 1766.19,1018.34 1786.42,1029.65 1806.65,1041.16 1826.87,1048.96 1847.1,1055.83 1867.33,1062.26 
  1887.55,1067.41 1907.78,1076.03 1928,1082.14 1948.23,1092.91 1968.46,1098.55 1988.68,1103.12 2008.91,1108.13 2029.14,1109.59 2049.36,1109.56 2069.59,1111.97 
  2089.81,1117.28 2110.04,1122.92 2130.27,1134.21 2150.49,1137.1 2170.72,1136.44 2190.95,1141.37 2211.17,1147.75 2231.4,1155.94 2251.62,1168.96 2271.85,1175.91 
  2292.08,1180.16 
  "/>
<polygon clip-path="url(#clip4302)" points="
269.449,1074.29 289.676,1087.39 309.902,1089.14 330.128,1089.13 350.354,1086.71 370.581,1085.91 390.807,1094.15 411.033,1094.62 431.259,1091.76 451.486,1087.66 
  471.712,1084.65 491.938,1074.48 512.165,1070.01 532.391,1063.31 552.617,1057.89 572.843,1059.09 593.07,1048.92 613.296,1043.87 633.522,1031.21 653.749,1023.62 
  673.975,1020.97 694.201,1019.88 714.427,1014.86 734.654,1010.41 754.88,999.888 775.106,989.7 795.332,974.595 815.559,955.087 835.785,947.657 856.011,936.784 
  876.238,919.987 896.464,908.8 916.69,906.519 936.916,903.881 957.143,902.042 977.369,893.922 997.595,891.724 1017.82,895.738 1038.05,894.627 1058.27,885.266 
  1078.5,882.635 1098.73,886.308 1118.95,877.861 1139.18,872.165 1159.41,872.753 1179.63,874.717 1199.86,875.807 1220.08,883.089 1240.31,887.137 1260.54,876.485 
  1280.76,853.408 1300.99,819.559 1321.22,786.155 1341.44,755.708 1361.67,714.127 1381.89,671.801 1402.12,623.863 1422.35,571.552 1442.57,531.927 1462.8,503.764 
  1483.03,490.996 1503.25,486.88 1523.48,487.804 1543.7,489 1563.93,498.988 1584.16,507.955 1604.38,522.495 1624.61,535.945 1644.84,549.644 1665.06,570.371 
  1685.29,584.724 1705.51,601.828 1725.74,607.862 1745.97,612.56 1766.19,614.913 1786.42,614.161 1806.65,623.659 1826.87,625.449 1847.1,631.11 1867.33,636.086 
  1887.55,633.58 1907.78,629.984 1928,630.92 1948.23,628.462 1968.46,633.506 1988.68,639.265 2008.91,637.755 2029.14,642.43 2049.36,646.339 2069.59,651.532 
  2089.81,657.118 2110.04,660.456 2130.27,664.073 2150.49,666.268 2170.72,673.111 2190.95,679.721 2211.17,682.721 2231.4,689.949 2251.62,694.568 2271.85,700.482 
  2292.08,704.504 2292.08,469.281 2271.85,460.931 2251.62,448.45 2231.4,439.808 2211.17,425.779 2190.95,419.349 2170.72,397.556 2150.49,379.75 2130.27,376.979 
  2110.04,362.645 2089.81,355.491 2069.59,348.692 2049.36,338.235 2029.14,329.794 2008.91,321.844 1988.68,342.363 1968.46,329.262 1948.23,315.033 1928,323.678 
  1907.78,324.156 1887.55,340.173 1867.33,349.588 1847.1,339.657 1826.87,328.383 1806.65,323.291 1786.42,286.712 1766.19,295.181 1745.97,293.027 1725.74,283.235 
  1705.51,283.627 1685.29,245.818 1665.06,219.132 1644.84,175.967 1624.61,150.167 1604.38,128.079 1584.16,106.909 1563.93,97.4722 1543.7,88.0053 1523.48,92.1364 
  1503.25,92.2974 1483.03,97.1115 1462.8,114.564 1442.57,156.913 1422.35,217.732 1402.12,294.76 1381.89,365.345 1361.67,426.802 1341.44,483.544 1321.22,527.436 
  1300.99,572.986 1280.76,617.21 1260.54,650.544 1240.31,664.966 1220.08,658.341 1199.86,646.398 1179.63,648.652 1159.41,652.217 1139.18,650.031 1118.95,664.304 
  1098.73,677.128 1078.5,670.329 1058.27,671.919 1038.05,689.343 1017.82,701.361 997.595,702.747 977.369,699.073 957.143,709.112 936.916,738.926 916.69,738.08 
  896.464,738.357 876.238,738.745 856.011,759.338 835.785,779.303 815.559,787.481 795.332,810.485 775.106,834.599 754.88,849.71 734.654,858.069 714.427,870.007 
  694.201,892.712 673.975,894.194 653.749,891.663 633.522,904.975 613.296,924.943 593.07,932.403 572.843,940.726 552.617,933.233 532.391,929.677 512.165,931.967 
  491.938,937.804 471.712,946.918 451.486,950.798 431.259,955.459 411.033,974.71 390.807,980.311 370.581,999.08 350.354,1000.22 330.128,1002.63 309.902,1004.75 
  289.676,1002.83 269.449,993.53 
  " fill="#56b4e9" fill-rule="evenodd" fill-opacity="0.5"/>
<polyline clip-path="url(#clip4302)" style="stroke:#56b4e9; stroke-width:4; stroke-opacity:1; fill:none" points="
  269.449,1033.91 289.676,1045.11 309.902,1046.94 330.128,1045.88 350.354,1043.46 370.581,1042.49 390.807,1037.23 411.033,1034.67 431.259,1023.61 451.486,1019.23 
  471.712,1015.78 491.938,1006.14 512.165,1000.99 532.391,996.495 552.617,995.563 572.843,999.909 593.07,990.663 613.296,984.407 633.522,968.092 653.749,957.642 
  673.975,957.582 694.201,956.295 714.427,942.433 734.654,934.242 754.88,924.799 775.106,912.149 795.332,892.54 815.559,871.284 835.785,863.48 856.011,848.061 
  876.238,829.366 896.464,823.578 916.69,822.3 936.916,821.404 957.143,805.577 977.369,796.498 997.595,797.236 1017.82,798.55 1038.05,791.985 1058.27,778.593 
  1078.5,776.482 1098.73,781.718 1118.95,771.083 1139.18,761.098 1159.41,762.485 1179.63,761.685 1199.86,761.103 1220.08,770.715 1240.31,776.052 1260.54,763.514 
  1280.76,735.309 1300.99,696.272 1321.22,656.796 1341.44,619.626 1361.67,570.465 1381.89,518.573 1402.12,459.311 1422.35,394.642 1442.57,344.42 1462.8,309.164 
  1483.03,294.054 1503.25,289.589 1523.48,289.97 1543.7,288.502 1563.93,298.23 1584.16,307.432 1604.38,325.287 1624.61,343.056 1644.84,362.805 1665.06,394.751 
  1685.29,415.271 1705.51,442.727 1725.74,445.549 1745.97,452.793 1766.19,455.047 1786.42,450.437 1806.65,473.475 1826.87,476.916 1847.1,485.384 1867.33,492.837 
  1887.55,486.877 1907.78,477.07 1928,477.299 1948.23,471.748 1968.46,481.384 1988.68,490.814 2008.91,479.8 2029.14,486.112 2049.36,492.287 2069.59,500.112 
  2089.81,506.304 2110.04,511.55 2130.27,520.526 2150.49,523.009 2170.72,535.334 2190.95,549.535 2211.17,554.25 2231.4,564.879 2251.62,571.509 2271.85,580.706 
  2292.08,586.893 
  "/>
<polygon clip-path="url(#clip4300)" points="
1718.4,312.204 2280.76,312.204 2280.76,130.764 1718.4,130.764 
  " fill="#ffffff" fill-rule="evenodd" fill-opacity="1"/>
<polyline clip-path="url(#clip4300)" style="stroke:#000000; stroke-width:4; stroke-opacity:1; fill:none" points="
  1718.4,312.204 2280.76,312.204 2280.76,130.764 1718.4,130.764 1718.4,312.204 
  "/>
<polyline clip-path="url(#clip4300)" style="stroke:#e69f00; stroke-width:4; stroke-opacity:1; fill:none" points="
  1742.4,191.244 1886.4,191.244 
  "/>
<g clip-path="url(#clip4300)">
<text style="fill:#000000; fill-opacity:1; font-family:Arial,Helvetica Neue,Helvetica,sans-serif; font-size:48px; text-anchor:start;" transform="rotate(0, 1910.4, 208.744)" x="1910.4" y="208.744">Reward = false</text>
</g>
<polyline clip-path="url(#clip4300)" style="stroke:#56b4e9; stroke-width:4; stroke-opacity:1; fill:none" points="
  1742.4,251.724 1886.4,251.724 
  "/>
<g clip-path="url(#clip4300)">
<text style="fill:#000000; fill-opacity:1; font-family:Arial,Helvetica Neue,Helvetica,sans-serif; font-size:48px; text-anchor:start;" transform="rotate(0, 1910.4, 269.224)" x="1910.4" y="269.224">Reward = true</text>
</g>
</svg>
